PathFileType	4	(X/Y/Z)	C:\Users\italobelli\Desktop\GitHub\PTbot_officialCBL\Personal_Results\FLX23_noisy1.trc
DataRate	CameraRate	NumFrames	NumMarkers	Units	OrigDataRate	OrigDataStartFrame	OrigNumFrames
106.533333	106.533333	38	9	m	106.533333	201	800
Frame#	Time		gu		centelbow		EpL		centpxt8		centijc7		ij		ts		aa		ai
			X1	Y1	Z1	X2	Y2	Z2	X3	Y3	Z3	X4	Y4	Z4	X5	Y5	Z5	X6	Y6	Z6	X7	Y7	Z7	X8	Y8	Z8	X9	Y9	Z9

201	1.8773	-0.065959	0.015804	0.15145	0.099694	-0.15699	0.24279	0.10786	-0.13203	0.26096	-0.046816	-0.15316	-0.008669	-0.046816	0.031938	-0.008669	0	0	0	-0.15107	0.016581	0.05375	-0.10255	0.043157	0.15888	-0.14827	-0.09166	0.085317
202	1.8867	-0.066031	0.016841	0.15109	0.10201	-0.15286	0.24309	0.10992	-0.12765	0.26106	-0.046816	-0.15316	-0.008669	-0.046816	0.031938	-0.008669	0	0	0	-0.15141	0.016347	0.053725	-0.10263	0.043839	0.15855	-0.14807	-0.09171	0.086042
203	1.8961	-0.066108	0.01786	0.15073	0.10424	-0.14874	0.24339	0.1119	-0.12327	0.26115	-0.046816	-0.15316	-0.008669	-0.046816	0.031938	-0.008669	0	0	0	-0.15174	0.01611	0.053701	-0.10271	0.044514	0.15821	-0.14787	-0.091756	0.086767
204	1.9055	-0.066189	0.018858	0.15037	0.10639	-0.14461	0.24367	0.11379	-0.1189	0.26122	-0.046816	-0.15316	-0.008669	-0.046816	0.031938	-0.008669	0	0	0	-0.15207	0.015872	0.053679	-0.10279	0.045179	0.15787	-0.14767	-0.091801	0.087493
205	1.9149	-0.066275	0.019834	0.15001	0.10844	-0.1405	0.24395	0.11559	-0.11455	0.26129	-0.046816	-0.15316	-0.008669	-0.046816	0.031938	-0.008669	0	0	0	-0.15238	0.01563	0.053659	-0.10287	0.045834	0.15754	-0.14748	-0.091842	0.088218
206	1.9243	-0.066366	0.020786	0.14964	0.11039	-0.13639	0.24421	0.1173	-0.11021	0.26134	-0.046816	-0.15316	-0.008669	-0.046816	0.031938	-0.008669	0	0	0	-0.15269	0.015387	0.05364	-0.10295	0.046478	0.1572	-0.14728	-0.091882	0.088942
207	1.9337	-0.066462	0.021712	0.14927	0.11224	-0.1323	0.24445	0.1189	-0.10589	0.26138	-0.046816	-0.15316	-0.008669	-0.046816	0.031938	-0.008669	0	0	0	-0.15299	0.015141	0.053623	-0.10303	0.04711	0.15686	-0.14709	-0.091918	0.089664
208	1.9431	-0.066562	0.022609	0.1489	0.11399	-0.12823	0.24469	0.12041	-0.1016	0.26141	-0.046816	-0.15316	-0.008669	-0.046816	0.031938	-0.008669	0	0	0	-0.15327	0.014893	0.053608	-0.10311	0.047728	0.15652	-0.1469	-0.091952	0.090383
209	1.9524	-0.066667	0.023476	0.14853	0.11562	-0.12419	0.24491	0.12181	-0.097344	0.26142	-0.046816	-0.15316	-0.008669	-0.046816	0.031938	-0.008669	0	0	0	-0.15355	0.014643	0.053595	-0.1032	0.048332	0.15618	-0.14671	-0.091982	0.091099
210	1.9618	-0.066777	0.02431	0.14816	0.11715	-0.12018	0.24513	0.12311	-0.093122	0.26142	-0.046816	-0.15316	-0.008669	-0.046816	0.031938	-0.008669	0	0	0	-0.15381	0.01439	0.053584	-0.10328	0.04892	0.15584	-0.14652	-0.09201	0.091812
211	1.9712	-0.066892	0.02511	0.14778	0.11855	-0.1162	0.24532	0.12429	-0.088939	0.26141	-0.046816	-0.15316	-0.008669	-0.046816	0.031938	-0.008669	0	0	0	-0.15407	0.014136	0.053575	-0.10336	0.049492	0.1555	-0.14633	-0.092035	0.09252
212	1.9806	-0.067011	0.025873	0.14741	0.11983	-0.11225	0.24551	0.12535	-0.084802	0.26138	-0.046816	-0.15316	-0.008669	-0.046816	0.031938	-0.008669	0	0	0	-0.15431	0.01388	0.053569	-0.10344	0.050046	0.15516	-0.14615	-0.092056	0.093223
213	1.99	-0.067136	0.026598	0.14703	0.12099	-0.10836	0.24568	0.12629	-0.080715	0.26134	-0.046816	-0.15316	-0.008669	-0.046816	0.031938	-0.008669	0	0	0	-0.15453	0.013621	0.053565	-0.10352	0.050581	0.15482	-0.14597	-0.092074	0.093921
214	1.9994	-0.067265	0.027282	0.14666	0.12202	-0.1045	0.24583	0.12711	-0.076683	0.26128	-0.046816	-0.15316	-0.008669	-0.046816	0.031938	-0.008669	0	0	0	-0.15475	0.013361	0.053564	-0.1036	0.051096	0.15448	-0.14579	-0.092089	0.094612
215	2.0088	-0.06741	0.027946	0.14627	0.12293	-0.10062	0.24596	0.12781	-0.072627	0.2612	-0.046816	-0.15316	-0.008669	-0.046816	0.031938	-0.008669	0	0	0	-0.15495	0.013095	0.053568	-0.10369	0.051603	0.15414	-0.14562	-0.092097	0.09531
216	2.0181	-0.067583	0.028616	0.14587	0.12376	-0.096614	0.24607	0.12841	-0.068447	0.26109	-0.046816	-0.15316	-0.008669	-0.046816	0.031938	-0.008669	0	0	0	-0.15515	0.012817	0.053583	-0.10377	0.052117	0.15379	-0.14544	-0.092093	0.096033
217	2.0275	-0.067784	0.029293	0.14545	0.12452	-0.092478	0.24615	0.1289	-0.064148	0.26093	-0.046816	-0.15316	-0.008669	-0.046816	0.031938	-0.008669	0	0	0	-0.15535	0.012528	0.053606	-0.10387	0.052637	0.15342	-0.14526	-0.092077	0.096778
218	2.0369	-0.068011	0.029975	0.14502	0.12519	-0.088223	0.24621	0.1293	-0.059735	0.26074	-0.046816	-0.15316	-0.008669	-0.046816	0.031938	-0.008669	0	0	0	-0.15554	0.012228	0.053639	-0.10396	0.053163	0.15305	-0.14508	-0.092051	0.097546
219	2.0463	-0.068263	0.030662	0.14457	0.12579	-0.083853	0.24624	0.1296	-0.055215	0.26051	-0.046816	-0.15316	-0.008669	-0.046816	0.031938	-0.008669	0	0	0	-0.15573	0.011918	0.05368	-0.10407	0.053694	0.15267	-0.1449	-0.092013	0.098334
220	2.0557	-0.06854	0.031354	0.14411	0.12631	-0.079375	0.24624	0.1298	-0.050591	0.26025	-0.046816	-0.15316	-0.008669	-0.046816	0.031938	-0.008669	0	0	0	-0.15591	0.011597	0.053729	-0.10417	0.054231	0.15227	-0.14472	-0.091965	0.099143
221	2.0651	-0.06884	0.032049	0.14363	0.12675	-0.074793	0.24622	0.12991	-0.045872	0.25995	-0.046816	-0.15316	-0.008669	-0.046816	0.031938	-0.008669	0	0	0	-0.15609	0.011267	0.053786	-0.10428	0.054771	0.15187	-0.14453	-0.091907	0.09997
222	2.0745	-0.069163	0.032747	0.14314	0.12713	-0.070115	0.24618	0.12994	-0.041061	0.25962	-0.046816	-0.15316	-0.008669	-0.046816	0.031938	-0.008669	0	0	0	-0.15627	0.010927	0.053851	-0.1044	0.055316	0.15146	-0.14435	-0.091838	0.10081
223	2.0839	-0.069507	0.033448	0.14264	0.12743	-0.065344	0.24611	0.12987	-0.036164	0.25926	-0.046816	-0.15316	-0.008669	-0.046816	0.031938	-0.008669	0	0	0	-0.15644	0.010579	0.053922	-0.10452	0.055864	0.15105	-0.14416	-0.09176	0.10168
224	2.0932	-0.069871	0.03415	0.14213	0.12766	-0.060487	0.24602	0.12972	-0.031188	0.25887	-0.046816	-0.15316	-0.008669	-0.046816	0.031938	-0.008669	0	0	0	-0.15661	0.010222	0.054001	-0.10464	0.056415	0.15062	-0.14398	-0.091673	0.10255
225	2.1026	-0.070255	0.034853	0.14161	0.12782	-0.055549	0.24591	0.12948	-0.026138	0.25845	-0.046816	-0.15316	-0.008669	-0.046816	0.031938	-0.008669	0	0	0	-0.15678	0.0098572	0.054085	-0.10477	0.056969	0.15019	-0.14379	-0.091576	0.10344
226	2.112	-0.070657	0.035557	0.14108	0.12792	-0.050536	0.24578	0.12917	-0.021019	0.258	-0.046816	-0.15316	-0.008669	-0.046816	0.031938	-0.008669	0	0	0	-0.15694	0.0094845	0.054176	-0.1049	0.057525	0.14975	-0.1436	-0.091471	0.10435
227	2.1214	-0.071076	0.03626	0.14053	0.12795	-0.045454	0.24562	0.12877	-0.015837	0.25752	-0.046816	-0.15316	-0.008669	-0.046816	0.031938	-0.008669	0	0	0	-0.15709	0.0091045	0.054272	-0.10503	0.058082	0.1493	-0.1434	-0.091357	0.10526
228	2.1308	-0.071511	0.036963	0.13998	0.12791	-0.040307	0.24545	0.1283	-0.010598	0.25702	-0.046816	-0.15316	-0.008669	-0.046816	0.031938	-0.008669	0	0	0	-0.15724	0.0087177	0.054374	-0.10517	0.05864	0.14885	-0.14321	-0.091235	0.10619
229	2.1402	-0.071961	0.037663	0.13942	0.12781	-0.035102	0.24525	0.12776	-0.0053073	0.25649	-0.046816	-0.15316	-0.008669	-0.046816	0.031938	-0.008669	0	0	0	-0.15739	0.0083243	0.05448	-0.10532	0.059199	0.14839	-0.14302	-0.091105	0.10713
230	2.1496	-0.072426	0.038362	0.13886	0.12766	-0.029844	0.24504	0.12714	2.9413e-05	0.25593	-0.046816	-0.15316	-0.008669	-0.046816	0.031938	-0.008669	0	0	0	-0.15753	0.0079248	0.05459	-0.10546	0.059757	0.14792	-0.14282	-0.090967	0.10807
231	2.1589	-0.072903	0.039057	0.13828	0.12744	-0.024538	0.24481	0.12646	0.0054065	0.25535	-0.046816	-0.15316	-0.008669	-0.046816	0.031938	-0.008669	0	0	0	-0.15767	0.0075195	0.054705	-0.10561	0.060316	0.14745	-0.14262	-0.090823	0.10903
232	2.1683	-0.073393	0.039749	0.1377	0.12716	-0.019191	0.24456	0.1257	0.010818	0.25475	-0.046816	-0.15316	-0.008669	-0.046816	0.031938	-0.008669	0	0	0	-0.1578	0.007109	0.054823	-0.10577	0.060873	0.14698	-0.14242	-0.090671	0.10999
233	2.1777	-0.073894	0.040436	0.13712	0.12683	-0.013807	0.2443	0.12489	0.016259	0.25413	-0.046816	-0.15316	-0.008669	-0.046816	0.031938	-0.008669	0	0	0	-0.15792	0.0066935	0.054945	-0.10592	0.061429	0.1465	-0.14222	-0.090512	0.11095
234	2.1871	-0.074405	0.041119	0.13653	0.12644	-0.0083922	0.24401	0.12401	0.021723	0.25348	-0.046816	-0.15316	-0.008669	-0.046816	0.031938	-0.008669	0	0	0	-0.15804	0.0062734	0.055069	-0.10608	0.061982	0.14602	-0.14201	-0.090347	0.11192
235	2.1965	-0.074925	0.041796	0.13593	0.126	-0.0029525	0.24371	0.12307	0.027206	0.25281	-0.046816	-0.15316	-0.008669	-0.046816	0.031938	-0.008669	0	0	0	-0.15816	0.0058492	0.055196	-0.10625	0.062534	0.14553	-0.1418	-0.090176	0.1129
236	2.2059	-0.075453	0.042467	0.13534	0.1255	0.0025069	0.2434	0.12207	0.0327	0.25213	-0.046816	-0.15316	-0.008669	-0.046816	0.031938	-0.008669	0	0	0	-0.15826	0.0054213	0.055326	-0.10641	0.063082	0.14504	-0.14159	-0.089999	0.11388
237	2.2153	-0.075988	0.043131	0.13474	0.12495	0.0079804	0.24307	0.12101	0.038201	0.25142	-0.046816	-0.15316	-0.008669	-0.046816	0.031938	-0.008669	0	0	0	-0.15837	0.00499	0.055456	-0.10658	0.063627	0.14455	-0.14138	-0.089817	0.11485
238	2.2247	-0.076529	0.043787	0.13413	0.12436	0.013462	0.24273	0.11991	0.043702	0.2507	-0.046816	-0.15316	-0.008669	-0.046816	0.031938	-0.008669	0	0	0	-0.15846	0.0045558	0.055589	-0.10676	0.064168	0.14406	-0.14117	-0.089629	0.11583
